<?xml version="1.0" encoding="UTF-8" standalone="no"?>
<!-- Generator: Gravit.io -->

<svg
   xmlns:dc="http://purl.org/dc/elements/1.1/"
   xmlns:cc="http://creativecommons.org/ns#"
   xmlns:rdf="http://www.w3.org/1999/02/22-rdf-syntax-ns#"
   xmlns:svg="http://www.w3.org/2000/svg"
   xmlns="http://www.w3.org/2000/svg"
   xmlns:sodipodi="http://sodipodi.sourceforge.net/DTD/sodipodi-0.dtd"
   xmlns:inkscape="http://www.inkscape.org/namespaces/inkscape"
   style="isolation:isolate"
   viewBox="0 0 48 48"
   width="48"
   height="48"
   version="1.1"
   id="svg23"
   sodipodi:docname="folder-download.svg"
   inkscape:version="0.92.3 (2405546, 2018-03-11)">
  <sodipodi:namedview
     pagecolor="#ffffff"
     bordercolor="#666666"
     borderopacity="1"
     objecttolerance="10"
     gridtolerance="10"
     guidetolerance="10"
     inkscape:pageopacity="0"
     inkscape:pageshadow="2"
     inkscape:window-width="1366"
     inkscape:window-height="705"
     id="namedview25"
     showgrid="false"
     inkscape:zoom="13.906433"
     inkscape:cx="20.373391"
     inkscape:cy="18.200272"
     inkscape:window-x="-8"
     inkscape:window-y="-8"
     inkscape:window-maximized="1"
     inkscape:current-layer="g21" />
  <metadata
     id="metadata27">
    <rdf:RDF>
      <cc:Work
         rdf:about="">
        <dc:format>image/svg+xml</dc:format>
        <dc:type
           rdf:resource="http://purl.org/dc/dcmitype/StillImage" />
      </cc:Work>
    </rdf:RDF>
  </metadata>
  <defs
     id="defs5">
    <clipPath
       id="_clipPath_XNHii0XHSQ0OHuejAZuaTCVSUqufqjEQ">
      <rect
         width="48"
         height="48"
         id="rect2" />
    </clipPath>
  </defs>
  <g
     clip-path="url(#_clipPath_XNHii0XHSQ0OHuejAZuaTCVSUqufqjEQ)"
     id="g21">
    <linearGradient
       id="_lgradient_25"
       x1="-0.04632800608827978"
       y1="0.15974072496964337"
       x2="0.8522006595636732"
       y2="0.7102370619103313">
      <stop
         offset="3.0434782608695654%"
         stop-opacity="1"
         style="stop-color:#C50ED2"
         id="stop7" />
      <stop
         offset="98.69565217391305%"
         stop-opacity="1"
         style="stop-color:#8500F7"
         id="stop9" />
    </linearGradient>
    <path
       d=" M 20.105 15.447 L 20.107 15.445 L 45.923 15.465 C 46.092 15.466 46.229 15.603 46.229 15.772 L 46.229 45.892 C 46.229 46.061 46.092 46.198 45.923 46.198 L 1.545 46.208 C 1.376 46.208 1.238 46.071 1.238 45.902 L 1.229 18.688 L 15.61 18.743 C 15.614 18.743 15.617 18.743 15.621 18.743 L 1.243 18.683 L 1.247 12.515 C 1.247 12.346 1.385 12.208 1.554 12.208 L 15.61 12.208 C 15.695 12.208 15.819 12.249 15.887 12.3 L 20.105 15.447 Z  M 20.105 15.447 L 15.886 18.651 C 15.821 18.7 15.705 18.74 15.621 18.743 L 15.8 18.743 L 20.116 15.456 L 20.105 15.447 Z "
       fill-rule="evenodd"
       fill="none"
       vector-effect="non-scaling-stroke"
       stroke-width="1.5"
       stroke="url(#_lgradient_25-371)"
       stroke-linejoin="miter"
       stroke-linecap="square"
       stroke-miterlimit="3"
       id="path12" />
    <linearGradient
       id="_lgradient_26"
       x1="-0.04632800608827978"
       y1="0.15974072496964337"
       x2="0.8522006595636732"
       y2="0.7102370619103313"
       gradientTransform="matrix(12.291,0,0,20.5,17.931,20.375)"
       gradientUnits="userSpaceOnUse">
      <stop
         offset="3.0434782608695654%"
         stop-opacity="1"
         style="stop-color:#C50ED2"
         id="stop14" />
      <stop
         offset="98.69565217391305%"
         stop-opacity="1"
         style="stop-color:#8500F7"
         id="stop16" />
    </linearGradient>
    <path
       d=" M 24.75 40.858 L 24.75 40.875 L 23.375 40.875 L 23.375 40.866 L 18.077 35.535 C 17.882 35.339 17.882 35.02 18.077 34.824 L 18.165 34.735 C 18.36 34.538 18.677 34.538 18.872 34.735 L 23.375 39.265 L 23.375 20.375 L 24.75 20.375 L 24.75 39.257 L 29.28 34.699 C 29.475 34.503 29.792 34.503 29.987 34.699 L 30.075 34.788 C 30.271 34.985 30.271 35.303 30.075 35.5 L 24.75 40.858 Z "
       fill-rule="evenodd"
       fill="url(#_lgradient_26-659)"
       id="path19" />
    <linearGradient
       id="_lgradient_25-371"
       x1="-0.04632800608827978"
       y1="0.15974072496964337"
       x2="0.8522006595636732"
       y2="0.7102370619103313">
      <stop
         offset="3.0434782608695654%"
         stop-opacity="1"
         style="stop-color:#3af12d;opacity:1"
         id="stop850" />
      <stop
         offset="98.69565217391305%"
         stop-opacity="1"
         style="stop-color:#7aff08;opacity:1"
         id="stop852" />
    </linearGradient>
    <linearGradient
       id="_lgradient_26-659"
       x1="-0.04632800608827978"
       y1="0.15974072496964337"
       x2="0.8522006595636732"
       y2="0.7102370619103313"
       gradientTransform="matrix(12.291,0,0,20.5,17.931,20.375)"
       gradientUnits="userSpaceOnUse">
      <stop
         offset="3.0434782608695654%"
         stop-opacity="1"
         style="stop-color:#3af12d;opacity:1"
         id="stop889" />
      <stop
         offset="98.69565217391305%"
         stop-opacity="1"
         style="stop-color:#7aff08;opacity:1"
         id="stop891" />
    </linearGradient>
  </g>
</svg>
